<?xml version="1.0" encoding="UTF-8" standalone="no"?>
<!-- Created with Inkscape (http://www.inkscape.org/) -->

<svg
   xmlns:dc="http://purl.org/dc/elements/1.1/"
   xmlns:cc="http://creativecommons.org/ns#"
   xmlns:rdf="http://www.w3.org/1999/02/22-rdf-syntax-ns#"
   xmlns:svg="http://www.w3.org/2000/svg"
   xmlns="http://www.w3.org/2000/svg"
   xmlns:sodipodi="http://sodipodi.sourceforge.net/DTD/sodipodi-0.dtd"
   xmlns:inkscape="http://www.inkscape.org/namespaces/inkscape"
   width="100"
   height="100"
   viewBox="0 0 100 100"
   id="svg5353"
   version="1.1"
   inkscape:version="0.91 r13725"
   sodipodi:docname="ninja.svg"
   inkscape:export-filename="C:\SDE\projects\sts\threesixty\src\main\resources\static\ninja.png"
   inkscape:export-xdpi="600"
   inkscape:export-ydpi="600">
  <defs
     id="defs5355" />
  <sodipodi:namedview
     id="base"
     pagecolor="#ffffff"
     bordercolor="#666666"
     borderopacity="1.0"
     inkscape:pageopacity="0.0"
     inkscape:pageshadow="2"
     inkscape:zoom="1.979899"
     inkscape:cx="68.01028"
     inkscape:cy="-4.8402844"
     inkscape:document-units="px"
     inkscape:current-layer="layer1"
     showgrid="false"
     units="px"
     inkscape:window-width="1366"
     inkscape:window-height="709"
     inkscape:window-x="-8"
     inkscape:window-y="-8"
     inkscape:window-maximized="1" />
  <metadata
     id="metadata5358">
    <rdf:RDF>
      <cc:Work
         rdf:about="">
        <dc:format>image/svg+xml</dc:format>
        <dc:type
           rdf:resource="http://purl.org/dc/dcmitype/StillImage" />
        <dc:title></dc:title>
      </cc:Work>
    </rdf:RDF>
  </metadata>
  <g
     inkscape:label="Layer 1"
     inkscape:groupmode="layer"
     id="layer1"
     transform="translate(0,-952.36216)">
    <circle
       style="fill:#32bea6"
       id="circle19"
       r="48.900002"
       cy="1002.2374"
       cx="50.245098"
       inkscape:export-xdpi="73.619629"
       inkscape:export-ydpi="73.619629" />
    <path
       style="fill:#3e3e3f"
       inkscape:connector-curvature="0"
       id="path323"
       d="m 34.045107,1010.6374 -5,-11.10003 c -0.5,-1.1 -1.7,-1.5 -2.8,-1.1 -1.1,0.5 -1.5,1.70003 -1.1,2.80003 l 5,11.1 3.9,-1.7 z"
       inkscape:export-xdpi="73.619629"
       inkscape:export-ydpi="73.619629" />
    <polygon
       transform="translate(-257.15489,814.53736)"
       style="fill:#f3b607"
       id="polygon325"
       points="294.1,194.8 284.3,199.3 287.8,201.9 295,198.4 "
       inkscape:export-xdpi="73.619629"
       inkscape:export-ydpi="73.619629" />
    <path
       style="fill:#3e3e3f"
       inkscape:connector-curvature="0"
       id="path327"
       d="m 75.145107,1017.3374 c -2,-1.2 -8.9,-3.6 -14.2,-6.2 1.2,-5.9 4.4,-16.00003 2.7,-27.60003 -0.8,-5.3 -9.8,-9.8 -13.3,-9.8 -3.6,0 -12.5,4.5 -13.3,9.8 -1.8,11.6 1.4,21.70003 2.7,27.60003 -5.3,2.7 -12.3,5 -14.2,6.2 -2.7,1.7 -3.6,13.3 -3.6,13.3 l 56.9,0 c -0.1,0 -1,-11.6 -3.7,-13.3 z"
       inkscape:export-xdpi="73.619629"
       inkscape:export-ydpi="73.619629" />
    <path
       style="fill:#5b5c5f"
       inkscape:connector-curvature="0"
       id="path329"
       d="m 50.245107,1018.4374 0,-44.70003 c -3.6,0 -12.5,4.5 -13.3,9.8 -1.8,11.6 1.4,21.70003 2.7,27.60003 l 10.6,7.3 z"
       inkscape:export-xdpi="73.619629"
       inkscape:export-ydpi="73.619629" />
    <path
       style="fill:#fbd7d7"
       inkscape:connector-curvature="0"
       id="path331"
       d="m 50.245107,989.73737 c -6.2,0 -10.7,0.9 -10.7,0.9 l 0,4.4 c 0,0 6.2,5.30003 10.7,5.30003 4.4,0 10.7,-5.30003 10.7,-5.30003 l 0,-4.4 c 0,0 -4.5,-0.9 -10.7,-0.9 z"
       inkscape:export-xdpi="73.619629"
       inkscape:export-ydpi="73.619629" />
    <path
       style="fill:#fbc8c8"
       inkscape:connector-curvature="0"
       id="path333"
       d="m 60.945107,995.13737 0,-4.4 c 0,0 -4.4,-0.9 -10.7,-0.9 l 0,10.70003 c 4.5,-0.1 10.7,-5.40003 10.7,-5.40003 z"
       inkscape:export-xdpi="73.619629"
       inkscape:export-ydpi="73.619629" />
    <path
       style="fill:#3e3e3f"
       inkscape:connector-curvature="0"
       id="path335"
       d="m 47.545107,994.23737 c 0,-1 -0.8,-1.8 -1.8,-1.8 0,0 0,0 0,0 0,0 0,0 0,0.1 0,1 -0.8,1.8 -1.8,1.8 0,1 0.8,1.7 1.8,1.7 1,0 1.8,-0.8 1.8,-1.8 z"
       inkscape:export-xdpi="73.619629"
       inkscape:export-ydpi="73.619629" />
    <path
       style="fill:#3e3e3f"
       inkscape:connector-curvature="0"
       id="path337"
       d="m 56.445107,994.23737 c 0,-1 -0.8,-1.8 -1.8,-1.8 0,0 0,0 0,0 0,0 0,0 0,0.1 0,1 -0.8,1.8 -1.8,1.8 0,1 0.8,1.7 1.8,1.7 1,0 1.8,-0.8 1.8,-1.8 z"
       inkscape:export-xdpi="73.619629"
       inkscape:export-ydpi="73.619629" />
    <path
       style="fill:#e2e4e5"
       inkscape:connector-curvature="0"
       id="path339"
       d="m 52.845107,1020.2374 -13.3,-9.1 c -1.3,0.6 -2.6,1.2 -4,1.8 l 13.7,9.9 3.6,-2.6 z"
       inkscape:export-xdpi="73.619629"
       inkscape:export-ydpi="73.619629" />
    <path
       style="fill:#f0f1f1"
       inkscape:connector-curvature="0"
       id="path341"
       d="m 48.845107,1030.6374 18.8,-16.6 c -1.3,-0.5 -2.7,-1.1 -4,-1.7 l -24.9,18.3 10.1,0 0,0 z"
       inkscape:export-xdpi="73.619629"
       inkscape:export-ydpi="73.619629" />
  </g>
</svg>
